<mxfile host="app.diagrams.net" agent="Mozilla/5.0 (Windows NT 10.0; Win64; x64) AppleWebKit/537.36 (KHTML, like Gecko) Chrome/135.0.0.0 Safari/537.36" version="26.2.13">
  <diagram id="C5RBs43oDa-KdzZeNtuy" name="Page-1">
    <mxGraphModel dx="1228" dy="671" grid="1" gridSize="10" guides="1" tooltips="1" connect="1" arrows="1" fold="1" page="1" pageScale="1" pageWidth="1169" pageHeight="827" math="0" shadow="0">
      <root>
        <mxCell id="WIyWlLk6GJQsqaUBKTNV-0" />
        <mxCell id="WIyWlLk6GJQsqaUBKTNV-1" parent="WIyWlLk6GJQsqaUBKTNV-0" />
        <mxCell id="FW0I6kvESRcIH9Z81Htm-4" value="&lt;font style=&quot;font-size: 25px;&quot;&gt;patients&lt;/font&gt;" style="swimlane;childLayout=stackLayout;horizontal=1;startSize=50;horizontalStack=0;rounded=1;fontSize=14;fontStyle=0;strokeWidth=2;resizeParent=0;resizeLast=1;shadow=0;dashed=0;align=center;arcSize=4;whiteSpace=wrap;html=1;fontFamily=Verdana;" parent="WIyWlLk6GJQsqaUBKTNV-1" vertex="1">
          <mxGeometry x="60" y="60" width="260" height="200" as="geometry" />
        </mxCell>
        <mxCell id="FW0I6kvESRcIH9Z81Htm-5" value="&lt;div style=&quot;line-height: 140%;&quot;&gt;&lt;span style=&quot;font-size: 20px; background-color: transparent; color: light-dark(rgb(0, 0, 0), rgb(255, 255, 255)); line-height: 140%;&quot;&gt;&lt;span style=&quot;background-color: transparent; color: light-dark(rgb(0, 0, 0), rgb(255, 255, 255));&quot;&gt;id&lt;/span&gt;: UUID/int&amp;nbsp;&lt;/span&gt;&lt;span style=&quot;font-size: 20px;&quot;&gt;(PK)&lt;/span&gt;&lt;br&gt;&lt;span style=&quot;font-size: 20px; background-color: transparent; color: light-dark(rgb(0, 0, 0), rgb(255, 255, 255)); line-height: 140%;&quot;&gt;name: varchar&lt;/span&gt;&lt;br&gt;&lt;span style=&quot;font-size: 20px; background-color: transparent; color: light-dark(rgb(0, 0, 0), rgb(255, 255, 255)); line-height: 140%;&quot;&gt;age:&amp;nbsp;&lt;/span&gt;&lt;span style=&quot;font-size: 20px; background-color: transparent; color: light-dark(rgb(0, 0, 0), rgb(255, 255, 255));&quot;&gt;int&lt;/span&gt;&lt;/div&gt;&lt;div style=&quot;line-height: 140%;&quot;&gt;&lt;font&gt;&lt;span style=&quot;font-size: 20px;&quot;&gt;email:&amp;nbsp;&lt;/span&gt;&lt;/font&gt;&lt;span style=&quot;font-size: 20px;&quot;&gt;varchar&lt;/span&gt;&lt;font&gt;&lt;span style=&quot;font-size: 20px;&quot;&gt;&amp;nbsp;unique&amp;nbsp;&lt;br&gt;&lt;/span&gt;&lt;/font&gt;&lt;span style=&quot;font-size: 20px; background-color: transparent; color: light-dark(rgb(0, 0, 0), rgb(255, 255, 255)); line-height: 140%;&quot;&gt;problem:&amp;nbsp;&lt;/span&gt;&lt;span style=&quot;font-size: 20px; background-color: transparent; color: light-dark(rgb(0, 0, 0), rgb(255, 255, 255));&quot;&gt;varchar&lt;/span&gt;&lt;/div&gt;" style="align=center;strokeColor=none;fillColor=none;spacingLeft=4;spacingRight=4;fontSize=12;verticalAlign=top;resizable=0;rotatable=0;part=1;html=1;whiteSpace=wrap;fontFamily=Verdana;" parent="FW0I6kvESRcIH9Z81Htm-4" vertex="1">
          <mxGeometry y="50" width="260" height="150" as="geometry" />
        </mxCell>
        <mxCell id="FW0I6kvESRcIH9Z81Htm-9" style="edgeStyle=orthogonalEdgeStyle;rounded=0;orthogonalLoop=1;jettySize=auto;html=1;exitX=0.5;exitY=1;exitDx=0;exitDy=0;fontFamily=Verdana;" parent="FW0I6kvESRcIH9Z81Htm-4" source="FW0I6kvESRcIH9Z81Htm-5" target="FW0I6kvESRcIH9Z81Htm-5" edge="1">
          <mxGeometry relative="1" as="geometry" />
        </mxCell>
        <mxCell id="FW0I6kvESRcIH9Z81Htm-10" value="&lt;span style=&quot;font-size: 25px;&quot;&gt;doctors&lt;/span&gt;" style="swimlane;childLayout=stackLayout;horizontal=1;startSize=50;horizontalStack=0;rounded=1;fontSize=14;fontStyle=0;strokeWidth=2;resizeParent=0;resizeLast=1;shadow=0;dashed=0;align=center;arcSize=4;whiteSpace=wrap;html=1;fontFamily=Verdana;" parent="WIyWlLk6GJQsqaUBKTNV-1" vertex="1">
          <mxGeometry x="60" y="630" width="240" height="150" as="geometry" />
        </mxCell>
        <mxCell id="FW0I6kvESRcIH9Z81Htm-11" value="&lt;div style=&quot;line-height: 140%;&quot;&gt;&lt;span style=&quot;font-size: 20px; background-color: transparent; color: light-dark(rgb(0, 0, 0), rgb(255, 255, 255)); line-height: 140%;&quot;&gt;id: UUID/&lt;/span&gt;&lt;span style=&quot;font-size: 20px;&quot;&gt;int&amp;nbsp;&lt;/span&gt;&lt;span style=&quot;font-size: 20px;&quot;&gt;(PK)&lt;/span&gt;&lt;div&gt;&lt;span style=&quot;font-size: 20px; background-color: transparent; color: light-dark(rgb(0, 0, 0), rgb(255, 255, 255)); line-height: 140%;&quot;&gt;name:&amp;nbsp;&lt;/span&gt;&lt;span style=&quot;font-size: 20px;&quot;&gt;varchar&lt;/span&gt;&lt;div&gt;&lt;font&gt;&lt;span style=&quot;font-size: 20px; line-height: 140%;&quot;&gt;specialization:&amp;nbsp;&lt;/span&gt;&lt;/font&gt;&lt;span style=&quot;font-size: 20px; background-color: transparent; color: light-dark(rgb(0, 0, 0), rgb(255, 255, 255));&quot;&gt;varchar&lt;/span&gt;&lt;/div&gt;&lt;/div&gt;&lt;/div&gt;" style="align=center;strokeColor=none;fillColor=none;spacingLeft=4;spacingRight=4;fontSize=12;verticalAlign=top;resizable=0;rotatable=0;part=1;html=1;whiteSpace=wrap;fontFamily=Verdana;" parent="FW0I6kvESRcIH9Z81Htm-10" vertex="1">
          <mxGeometry y="50" width="240" height="100" as="geometry" />
        </mxCell>
        <mxCell id="FW0I6kvESRcIH9Z81Htm-12" style="edgeStyle=orthogonalEdgeStyle;rounded=0;orthogonalLoop=1;jettySize=auto;html=1;exitX=0.5;exitY=1;exitDx=0;exitDy=0;fontFamily=Verdana;" parent="FW0I6kvESRcIH9Z81Htm-10" source="FW0I6kvESRcIH9Z81Htm-11" target="FW0I6kvESRcIH9Z81Htm-11" edge="1">
          <mxGeometry relative="1" as="geometry" />
        </mxCell>
        <mxCell id="FW0I6kvESRcIH9Z81Htm-14" value="&lt;font style=&quot;font-size: 25px;&quot;&gt;clinics&lt;/font&gt;" style="swimlane;childLayout=stackLayout;horizontal=1;startSize=50;horizontalStack=0;rounded=1;fontSize=14;fontStyle=0;strokeWidth=2;resizeParent=0;resizeLast=1;shadow=0;dashed=0;align=center;arcSize=4;whiteSpace=wrap;html=1;fontFamily=Verdana;" parent="WIyWlLk6GJQsqaUBKTNV-1" vertex="1">
          <mxGeometry x="880" y="640" width="220" height="140" as="geometry" />
        </mxCell>
        <mxCell id="FW0I6kvESRcIH9Z81Htm-15" value="&lt;div style=&quot;line-height: 140%;&quot;&gt;&lt;span style=&quot;font-size: 20px; background-color: transparent; color: light-dark(rgb(0, 0, 0), rgb(255, 255, 255)); line-height: 140%;&quot;&gt;&lt;span style=&quot;background-color: transparent; color: light-dark(rgb(0, 0, 0), rgb(255, 255, 255));&quot;&gt;id&lt;/span&gt;: UUID/&lt;/span&gt;&lt;span style=&quot;font-size: 20px;&quot;&gt;int&amp;nbsp;&lt;/span&gt;&lt;span style=&quot;font-size: 20px;&quot;&gt;(PK)&lt;/span&gt;&lt;div&gt;&lt;span style=&quot;font-size: 20px; background-color: transparent; color: light-dark(rgb(0, 0, 0), rgb(255, 255, 255)); line-height: 140%;&quot;&gt;name:&amp;nbsp;&lt;/span&gt;&lt;span style=&quot;font-size: 20px;&quot;&gt;varchar&lt;/span&gt;&lt;div&gt;&lt;font&gt;&lt;span style=&quot;font-size: 20px;&quot;&gt;address:&amp;nbsp;&lt;/span&gt;&lt;/font&gt;&lt;span style=&quot;font-size: 20px; background-color: transparent; color: light-dark(rgb(0, 0, 0), rgb(255, 255, 255));&quot;&gt;varchar&lt;/span&gt;&lt;/div&gt;&lt;/div&gt;&lt;div&gt;&lt;font&gt;&lt;span style=&quot;font-size: 20px;&quot;&gt;&lt;br&gt;&lt;/span&gt;&lt;/font&gt;&lt;/div&gt;&lt;/div&gt;" style="align=center;strokeColor=none;fillColor=none;spacingLeft=4;spacingRight=4;fontSize=12;verticalAlign=top;resizable=0;rotatable=0;part=1;html=1;whiteSpace=wrap;fontFamily=Verdana;" parent="FW0I6kvESRcIH9Z81Htm-14" vertex="1">
          <mxGeometry y="50" width="220" height="90" as="geometry" />
        </mxCell>
        <mxCell id="FW0I6kvESRcIH9Z81Htm-16" style="edgeStyle=orthogonalEdgeStyle;rounded=0;orthogonalLoop=1;jettySize=auto;html=1;exitX=0.5;exitY=1;exitDx=0;exitDy=0;fontFamily=Verdana;" parent="FW0I6kvESRcIH9Z81Htm-14" source="FW0I6kvESRcIH9Z81Htm-15" target="FW0I6kvESRcIH9Z81Htm-15" edge="1">
          <mxGeometry relative="1" as="geometry" />
        </mxCell>
        <mxCell id="FW0I6kvESRcIH9Z81Htm-19" value="&lt;span style=&quot;font-size: 25px;&quot;&gt;time_slots&lt;/span&gt;" style="swimlane;childLayout=stackLayout;horizontal=1;startSize=50;horizontalStack=0;rounded=1;fontSize=14;fontStyle=0;strokeWidth=2;resizeParent=0;resizeLast=1;shadow=0;dashed=0;align=center;arcSize=4;whiteSpace=wrap;html=1;fontFamily=Verdana;" parent="WIyWlLk6GJQsqaUBKTNV-1" vertex="1">
          <mxGeometry x="460" y="490" width="260" height="230" as="geometry" />
        </mxCell>
        <mxCell id="FW0I6kvESRcIH9Z81Htm-20" value="&lt;div style=&quot;line-height: 160%;&quot;&gt;&lt;div&gt;&lt;span style=&quot;font-size: 20px; background-color: transparent; color: light-dark(rgb(0, 0, 0), rgb(255, 255, 255));&quot;&gt;id&lt;/span&gt;&lt;font face=&quot;Verdana&quot;&gt;&lt;span style=&quot;font-size: 20px; background-color: transparent; color: light-dark(rgb(0, 0, 0), rgb(255, 255, 255)); line-height: 160%;&quot;&gt;: UUID/&lt;/span&gt;&lt;span style=&quot;font-size: 20px; line-height: 160%;&quot;&gt;int (PK)&lt;/span&gt;&lt;/font&gt;&lt;/div&gt;&lt;div&gt;&lt;span style=&quot;font-size: 20px; background-color: transparent; color: light-dark(rgb(0, 0, 0), rgb(255, 255, 255)); line-height: 160%;&quot;&gt;&lt;font face=&quot;Verdana&quot;&gt;check_in: datetime&lt;/font&gt;&lt;/span&gt;&lt;/div&gt;&lt;div&gt;&lt;span style=&quot;font-size: 20px; background-color: transparent; color: light-dark(rgb(0, 0, 0), rgb(255, 255, 255)); line-height: 160%;&quot;&gt;&lt;font face=&quot;Verdana&quot;&gt;check-out: datetime&lt;/font&gt;&lt;/span&gt;&lt;/div&gt;&lt;div&gt;&lt;span style=&quot;font-size: 20px; line-height: 160%;&quot;&gt;&lt;font face=&quot;Verdana&quot;&gt;doctor_id: FK(doctors)&lt;/font&gt;&lt;/span&gt;&lt;/div&gt;&lt;div&gt;&lt;span style=&quot;font-size: 20px; line-height: 160%;&quot;&gt;&lt;font face=&quot;Verdana&quot;&gt;clinic_id FK(clinics)&lt;/font&gt;&lt;/span&gt;&lt;/div&gt;&lt;/div&gt;" style="align=center;strokeColor=none;fillColor=none;spacingLeft=4;spacingRight=4;fontSize=12;verticalAlign=top;resizable=0;rotatable=0;part=1;html=1;whiteSpace=wrap;fontFamily=Verdana;" parent="FW0I6kvESRcIH9Z81Htm-19" vertex="1">
          <mxGeometry y="50" width="260" height="180" as="geometry" />
        </mxCell>
        <mxCell id="FW0I6kvESRcIH9Z81Htm-21" style="edgeStyle=orthogonalEdgeStyle;rounded=0;orthogonalLoop=1;jettySize=auto;html=1;exitX=0.5;exitY=1;exitDx=0;exitDy=0;fontFamily=Verdana;" parent="FW0I6kvESRcIH9Z81Htm-19" source="FW0I6kvESRcIH9Z81Htm-20" target="FW0I6kvESRcIH9Z81Htm-20" edge="1">
          <mxGeometry relative="1" as="geometry" />
        </mxCell>
        <mxCell id="FW0I6kvESRcIH9Z81Htm-27" value="&lt;span style=&quot;font-size: 25px;&quot;&gt;appointments&lt;/span&gt;" style="swimlane;childLayout=stackLayout;horizontal=1;startSize=50;horizontalStack=0;rounded=1;fontSize=14;fontStyle=0;strokeWidth=2;resizeParent=0;resizeLast=1;shadow=0;dashed=0;align=center;arcSize=4;whiteSpace=wrap;html=1;fontFamily=Verdana;" parent="WIyWlLk6GJQsqaUBKTNV-1" vertex="1">
          <mxGeometry x="790" y="60" width="310" height="190" as="geometry" />
        </mxCell>
        <mxCell id="FW0I6kvESRcIH9Z81Htm-28" value="&lt;div style=&quot;line-height: 160%;&quot;&gt;&lt;div&gt;&lt;span style=&quot;font-size: 20px; background-color: transparent; color: light-dark(rgb(0, 0, 0), rgb(255, 255, 255));&quot;&gt;id&lt;/span&gt;&lt;font face=&quot;Verdana&quot;&gt;&lt;span style=&quot;font-size: 20px; background-color: transparent; color: light-dark(rgb(0, 0, 0), rgb(255, 255, 255)); line-height: 160%;&quot;&gt;: UUID/&lt;/span&gt;&lt;span style=&quot;font-size: 20px; line-height: 160%;&quot;&gt;int&amp;nbsp;&lt;/span&gt;&lt;/font&gt;&lt;span style=&quot;font-size: 20px; background-color: transparent; color: light-dark(rgb(0, 0, 0), rgb(255, 255, 255));&quot;&gt;(PK)&lt;/span&gt;&lt;/div&gt;&lt;div&gt;&lt;span style=&quot;font-size: 20px; line-height: 160%;&quot;&gt;&lt;font face=&quot;Verdana&quot;&gt;patient_id: FK(patients)&lt;/font&gt;&lt;/span&gt;&lt;/div&gt;&lt;div&gt;&lt;span style=&quot;font-size: 20px; line-height: 160%;&quot;&gt;&lt;font face=&quot;Verdana&quot;&gt;time_slot_id: FK(time_slots)&lt;/font&gt;&lt;/span&gt;&lt;/div&gt;&lt;div&gt;&lt;span style=&quot;font-size: 20px; line-height: 160%;&quot;&gt;&lt;font face=&quot;Verdana&quot;&gt;status: varchar&lt;/font&gt;&lt;/span&gt;&lt;/div&gt;&lt;/div&gt;" style="align=center;strokeColor=none;fillColor=none;spacingLeft=4;spacingRight=4;fontSize=12;verticalAlign=top;resizable=0;rotatable=0;part=1;html=1;whiteSpace=wrap;fontFamily=Verdana;" parent="FW0I6kvESRcIH9Z81Htm-27" vertex="1">
          <mxGeometry y="50" width="310" height="140" as="geometry" />
        </mxCell>
        <mxCell id="FW0I6kvESRcIH9Z81Htm-29" style="edgeStyle=orthogonalEdgeStyle;rounded=0;orthogonalLoop=1;jettySize=auto;html=1;exitX=0.5;exitY=1;exitDx=0;exitDy=0;fontFamily=Verdana;" parent="FW0I6kvESRcIH9Z81Htm-27" source="FW0I6kvESRcIH9Z81Htm-28" target="FW0I6kvESRcIH9Z81Htm-28" edge="1">
          <mxGeometry relative="1" as="geometry" />
        </mxCell>
        <mxCell id="EiCN_WpO5p8bvZb6SP5G-0" value="" style="fontSize=12;html=1;endArrow=ERoneToMany;rounded=0;entryX=-0.013;entryY=0.159;entryDx=0;entryDy=0;entryPerimeter=0;edgeStyle=elbowEdgeStyle;strokeWidth=3;" edge="1" parent="WIyWlLk6GJQsqaUBKTNV-1" target="FW0I6kvESRcIH9Z81Htm-28">
          <mxGeometry width="100" height="100" relative="1" as="geometry">
            <mxPoint x="320" y="129" as="sourcePoint" />
            <mxPoint x="420" y="30" as="targetPoint" />
          </mxGeometry>
        </mxCell>
        <mxCell id="EiCN_WpO5p8bvZb6SP5G-2" value="" style="edgeStyle=entityRelationEdgeStyle;fontSize=12;html=1;endArrow=ERmany;startArrow=ERmany;rounded=0;entryX=0;entryY=0.75;entryDx=0;entryDy=0;exitX=0.995;exitY=0.112;exitDx=0;exitDy=0;exitPerimeter=0;strokeWidth=3;" edge="1" parent="WIyWlLk6GJQsqaUBKTNV-1" source="FW0I6kvESRcIH9Z81Htm-20" target="FW0I6kvESRcIH9Z81Htm-27">
          <mxGeometry width="100" height="100" relative="1" as="geometry">
            <mxPoint x="480" y="450" as="sourcePoint" />
            <mxPoint x="580" y="350" as="targetPoint" />
          </mxGeometry>
        </mxCell>
        <mxCell id="EiCN_WpO5p8bvZb6SP5G-3" value="" style="edgeStyle=entityRelationEdgeStyle;fontSize=12;html=1;endArrow=ERmany;startArrow=ERmany;rounded=0;exitX=1;exitY=0.25;exitDx=0;exitDy=0;strokeWidth=3;" edge="1" parent="WIyWlLk6GJQsqaUBKTNV-1" source="FW0I6kvESRcIH9Z81Htm-11">
          <mxGeometry width="100" height="100" relative="1" as="geometry">
            <mxPoint x="480" y="650" as="sourcePoint" />
            <mxPoint x="460" y="656" as="targetPoint" />
          </mxGeometry>
        </mxCell>
        <mxCell id="EiCN_WpO5p8bvZb6SP5G-7" value="" style="edgeStyle=entityRelationEdgeStyle;fontSize=12;html=1;endArrow=ERmany;startArrow=ERmany;rounded=0;entryX=0;entryY=0.5;entryDx=0;entryDy=0;exitX=0.995;exitY=0.85;exitDx=0;exitDy=0;exitPerimeter=0;strokeWidth=3;" edge="1" parent="WIyWlLk6GJQsqaUBKTNV-1" source="FW0I6kvESRcIH9Z81Htm-20" target="FW0I6kvESRcIH9Z81Htm-14">
          <mxGeometry width="100" height="100" relative="1" as="geometry">
            <mxPoint x="750" y="800" as="sourcePoint" />
            <mxPoint x="850" y="700" as="targetPoint" />
          </mxGeometry>
        </mxCell>
      </root>
    </mxGraphModel>
  </diagram>
</mxfile>
